# Blender v2.79 (sub 0) OBJ File: 'rock.blend'
# www.blender.org
mtllib rock.mtl
o Icosphere_Icosphere.004
v 0.126420 -0.099934 -0.141402
v 0.027863 -0.099934 -0.109379
v -0.033050 -0.099934 -0.193216
v 0.027863 -0.099934 -0.277054
v 0.126420 -0.099934 -0.245031
v 0.082344 -0.011780 -0.109379
v -0.016213 -0.011780 -0.141402
v -0.016213 -0.011780 -0.245031
v 0.082344 -0.011780 -0.277054
v 0.143257 -0.011780 -0.193216
v 0.055103 0.042702 -0.193216
v 0.150035 -0.092728 0.109006
v -0.057307 -0.092728 0.176376
v -0.185455 -0.092728 0.000000
v -0.057307 -0.092728 -0.176376
v 0.150035 -0.092728 -0.109005
v 0.057307 0.092728 0.176376
v -0.150035 0.092728 0.109005
v -0.150035 0.092728 -0.109006
v 0.057307 0.092728 -0.176376
v 0.000000 0.207345 -0.000000
v 1.548988 -0.132797 0.646976
v 0.548993 -0.176842 0.971900
v -0.069045 -0.086184 0.121250
v 0.604852 0.544782 -0.549100
v 1.548988 -0.051962 -0.167998
v 1.073769 1.000131 0.976858
v 0.087450 0.985756 0.612806
v 0.315803 1.191166 -0.127682
v 1.126294 1.065486 -0.374645
v 1.721074 1.119182 0.156859
v 0.811939 1.493279 0.152465
v 1.088250 -0.164706 0.930262
v 1.676029 -0.164704 0.121250
v 0.137192 -0.164704 0.621247
v 0.137192 -0.120245 -0.121475
v 1.770774 1.008696 0.457930
v 1.581683 0.332736 -0.317650
v 0.796850 0.658162 1.105553
v 1.390299 0.989722 0.939918
v -0.127499 0.916596 0.379702
v 0.217103 0.881795 0.891570
v 0.265114 0.569436 -0.227145
v -0.058796 0.350230 -0.053592
v 1.438311 0.595821 -0.306474
v 0.861075 0.726676 -0.518443
v 1.493201 1.134803 0.653373
v 0.532979 1.056376 0.921372
v -0.024591 0.904343 0.093164
v 0.582913 0.914855 -0.369797
v 1.387904 0.914467 -0.166949
v 0.958686 1.295827 0.651054
v 1.339163 1.365803 0.169074
v 0.378946 1.287378 0.437071
v 0.397548 1.414100 -0.163507
v 0.993502 1.277401 -0.327129
v 1.548988 -0.086188 -0.069877
v -0.069045 -0.121734 -0.595603
v 0.548993 -0.142203 -1.196992
v 1.548988 -0.204306 -0.884851
v 0.101774 0.442430 -0.069877
v 0.101774 0.455859 -1.031663
v 1.101769 0.365619 -1.096874
v 1.719807 0.442426 -0.595603
v 0.825381 0.757426 -0.487019
v 1.676029 -0.164704 -0.595602
v 0.183055 -0.106778 -0.095606
v 0.137192 -0.155795 -0.838328
v 1.088250 -0.206068 -1.135186
v 1.776439 -0.128272 -0.286590
v 1.776439 0.437851 -0.800869
v 1.413167 0.361032 0.213414
v -0.058643 0.361032 0.012968
v 0.237595 0.298985 -1.034273
v -0.125677 0.437851 -0.800869
v 1.413167 0.298985 -1.034273
v 0.825381 0.245944 -1.217743
v 1.513570 0.520947 -0.095606
v -0.025267 0.520946 -0.595603
v 0.562512 0.452612 -1.078681
v 1.513570 0.538433 -1.028753
v 1.351111 0.708679 -0.242129
v 0.400058 0.708681 -0.286591
v 0.400058 0.771824 -0.897420
v 0.987837 0.718783 -1.080890
vt 0.538597 0.760276
vt 0.553200 0.760276
vt 0.553200 0.774880
vt 0.538597 0.760276
vt 0.553200 0.760276
vt 0.553200 0.774880
vt 0.538597 0.760276
vt 0.553200 0.760276
vt 0.553200 0.774880
vt 0.538597 0.760276
vt 0.553200 0.760276
vt 0.553200 0.774880
vt 0.538597 0.760276
vt 0.553200 0.760276
vt 0.553200 0.760276
vt 0.553200 0.760276
vt 0.553200 0.760276
vt 0.538597 0.760276
vt 0.553200 0.774880
vt 0.320823 0.730979
vt 0.335427 0.730979
vt 0.335427 0.745583
vt 0.320823 0.730979
vt 0.335427 0.730979
vt 0.538597 0.760276
vt 0.553200 0.760276
vt 0.553200 0.774880
vt 0.538597 0.760276
vt 0.553200 0.760276
vt 0.553200 0.774880
vt 0.538597 0.760276
vt 0.553200 0.760276
vt 0.553200 0.774880
vt 0.538597 0.760276
vt 0.553200 0.760276
vt 0.553200 0.774880
vt 0.320823 0.730979
vt 0.335427 0.730979
vt 0.335427 0.745583
vt 0.553200 0.760276
vt 0.553200 0.760276
vt 0.320823 0.730979
vt 0.335427 0.745583
vt 0.320823 0.730979
vt 0.335427 0.730979
vt 0.320823 0.730979
vt 0.335427 0.730979
vt 0.539654 0.762561
vt 0.552481 0.762561
vt 0.552481 0.775389
vt 0.539654 0.762561
vt 0.552481 0.762561
vt 0.552481 0.775389
vt 0.539654 0.762561
vt 0.552481 0.762561
vt 0.552481 0.775389
vt 0.538677 0.758655
vt 0.551505 0.758655
vt 0.551505 0.771483
vt 0.552481 0.762561
vt 0.552481 0.775389
vt 0.552481 0.762561
vt 0.552481 0.775389
vt 0.539654 0.762561
vt 0.552481 0.762561
vt 0.552481 0.775389
vt 0.319927 0.726429
vt 0.332755 0.726429
vt 0.332755 0.739256
vt 0.319927 0.726429
vt 0.332755 0.726429
vt 0.332755 0.739256
vt 0.539654 0.762561
vt 0.552481 0.762561
vt 0.552481 0.775389
vt 0.539654 0.762561
vt 0.552481 0.762561
vt 0.552481 0.775389
vt 0.319927 0.726429
vt 0.332755 0.726429
vt 0.332755 0.739256
vt 0.319927 0.726429
vt 0.332755 0.726429
vt 0.332755 0.739256
vt 0.332755 0.739256
vt 0.319927 0.726429
vt 0.332755 0.726429
vt 0.319927 0.726429
vt 0.332755 0.726429
vt 0.332755 0.726429
vt 0.332755 0.739256
vt 0.319927 0.726429
vt 0.332755 0.726429
vt 0.319927 0.726429
vt 0.332755 0.726429
vt 0.332755 0.726429
vt 0.319927 0.726429
vt 0.332755 0.726429
vt 0.319927 0.726429
vt 0.332755 0.726429
vt 0.319927 0.726429
vt 0.332755 0.726429
vt 0.319927 0.726429
vt 0.332755 0.726429
vt 0.319927 0.726429
vt 0.332755 0.726429
vt 0.319927 0.726429
vt 0.332755 0.739256
vt 0.332755 0.726429
vt 0.332755 0.739256
vt 0.539654 0.762561
vt 0.552481 0.762561
vt 0.552481 0.775389
vt 0.539654 0.762561
vt 0.552481 0.775389
vt 0.552481 0.775389
vt 0.539654 0.762561
vt 0.552481 0.762561
vt 0.539654 0.762561
vt 0.552481 0.775389
vt 0.534771 0.758655
vt 0.547598 0.758655
vt 0.547598 0.771483
vt 0.319927 0.726429
vt 0.332755 0.739256
vt 0.319927 0.726429
vt 0.332755 0.739256
vt 0.332755 0.726429
vt 0.332755 0.739256
vt 0.319927 0.726429
vt 0.319927 0.726429
vt 0.332755 0.739256
vt 0.332755 0.726429
vt 0.332755 0.739256
vt 0.319927 0.726429
vt 0.552481 0.762561
vt 0.552481 0.762561
vt 0.539654 0.726429
vt 0.552481 0.726429
vt 0.552481 0.739256
vt 0.539654 0.726429
vt 0.552481 0.726429
vt 0.332755 0.726429
vt 0.539654 0.762561
vt 0.539654 0.762561
vt 0.552481 0.762561
vt 0.332755 0.726429
vt 0.539654 0.762561
vt 0.552481 0.775389
vt 0.539654 0.762561
vt 0.552481 0.762561
vt 0.332755 0.726429
vt 0.539654 0.762561
vt 0.552481 0.775389
vt 0.538677 0.731311
vt 0.551505 0.731311
vt 0.551505 0.744139
vt 0.544250 0.734412
vt 0.542335 0.736649
vt 0.540602 0.732794
vt 0.545268 0.763513
vt 0.544100 0.763706
vt 0.544501 0.762621
vt 0.547464 0.763776
vt 0.546254 0.763729
vt 0.547184 0.762819
vt 0.331041 0.737158
vt 0.330136 0.733562
vt 0.334398 0.733179
vt 0.543273 0.763709
vt 0.539625 0.762091
vt 0.543568 0.762433
vt 0.545827 0.762801
vt 0.548115 0.762752
vt 0.324493 0.732967
vt 0.323318 0.732519
vt 0.325024 0.731979
vt 0.326756 0.733279
vt 0.325544 0.732961
vt 0.326621 0.732371
vt 0.328998 0.733234
vt 0.327758 0.733026
vt 0.330289 0.730217
vt 0.326583 0.729466
vt 0.323093 0.729466
vt 0.320514 0.731695
vt 0.331656 0.731852
vt 0.328388 0.733455
vt 0.547484 0.762322
vt 0.327457 0.733523
vt 0.326101 0.733504
vt 0.545271 0.762258
vt 0.324775 0.733325
vt 0.323842 0.733136
vt 0.319899 0.732794
vt 0.552067 0.765749
vt 0.551136 0.766658
vt 0.550710 0.765730
vt 0.544219 0.762264
vt 0.549862 0.762859
vt 0.548724 0.762531
vt 0.548230 0.764274
vn 0.3035 -0.1876 0.9342
vn -0.7946 -0.1876 0.5774
vn -0.7946 -0.1876 -0.5774
vn 0.3035 -0.1876 -0.9342
vn 0.7946 0.1876 0.5774
vn -0.3035 0.1876 0.9342
vn -0.9822 0.1876 -0.0000
vn -0.3035 0.1876 -0.9342
vn -0.1876 0.7947 0.5774
vn -0.6071 0.7947 -0.0000
vn -0.1876 0.7947 -0.5774
vn 0.9595 -0.1465 0.2407
vn 0.0798 -0.1806 0.9803
vn -0.9224 -0.1459 0.3576
vn 0.7849 -0.0502 0.6176
vn -0.3602 -0.0422 0.9319
vn -0.9920 -0.0261 -0.1232
vn -0.4485 0.7208 -0.5285
vn 0.2262 0.7597 0.6096
vn -0.4572 0.7420 0.4903
vn -0.4571 0.7423 0.4900
vn -0.4609 0.7351 0.4972
vn -0.5940 0.0893 -0.7995
vn -0.0594 0.1828 -0.9814
vn 0.3530 0.5830 -0.7318
vn 0.2319 0.9169 -0.3249
vn 0.6737 0.4867 -0.5560
vn 0.6919 0.5408 -0.4783
vn 0.1088 0.9212 -0.3735
vn -0.1829 0.3167 -0.9307
vn -0.6109 0.0978 -0.7856
vn -0.3195 0.9291 0.1862
vn -0.7347 0.6680 0.1182
vn -0.7062 0.7067 0.0415
vn -0.1623 0.9001 0.4042
vn -0.1863 0.8625 0.4706
vn 0.0084 0.7419 0.6704
vn 0.2148 0.9280 0.3043
vn 0.2695 0.8997 0.3434
vn 0.5262 0.8226 0.2156
vn 0.5265 0.8223 0.2158
vn 0.5342 0.8164 0.2195
vn 0.5191 0.3722 -0.7694
vn 0.6593 0.3867 -0.6449
vn 0.6995 0.3766 -0.6073
vn -0.1402 0.4778 -0.8672
vn -0.4479 0.0433 -0.8930
vn -0.5554 0.1753 -0.8129
vn -0.5547 0.1753 -0.8134
vn -0.6588 0.2304 -0.7162
vn -0.9288 0.1474 -0.3399
vn -0.1932 0.9749 -0.1111
vn -0.4567 0.7428 0.4895
vn -0.2387 0.2729 0.9320
vn -0.0538 0.3896 0.9194
vn 0.0841 0.8765 0.4740
vn 0.6286 0.5792 0.5190
vn 0.5255 0.8231 0.2153
vn 0.3641 0.1076 -0.9251
vn -0.5545 0.1753 -0.8135
vn -0.4423 -0.0551 -0.8952
vn -0.7576 -0.2273 -0.6118
vn -0.7100 0.4846 0.5109
vn -0.8294 -0.0795 0.5530
vn -0.6439 -0.1449 0.7512
vn 0.1204 0.2628 0.9573
vn 0.3141 -0.0901 0.9451
vn 0.5255 -0.1445 0.8384
vn 0.9808 -0.0623 -0.1848
vn 0.9742 -0.0140 -0.2253
vn 0.8449 -0.2548 -0.4704
vn -0.7713 -0.4922 0.4036
vn -0.6428 -0.1790 -0.7448
vn 0.4737 -0.1307 -0.8709
vn 0.6395 -0.2633 0.7223
vn -0.9945 -0.0731 0.0750
vn -0.2822 0.1503 -0.9475
vn 0.5629 -0.0920 -0.8214
vn -0.6308 0.7192 -0.2911
vn -0.0279 0.0362 -0.9990
vn 0.5387 0.8395 -0.0704
vn 0.1084 0.9935 -0.0350
vn 0.3334 0.9333 -0.1331
vn 0.1274 0.0858 -0.9881
vn 0.0762 0.9961 -0.0440
vn -0.2438 0.3821 -0.8914
vn -0.0871 0.4580 -0.8847
vn -0.0654 0.9926 0.1026
vn -0.4570 0.8848 0.0915
vn -0.5373 0.8055 0.2501
vn 0.6774 0.7164 0.1669
vn 0.3079 0.9493 0.0638
vn 0.5865 -0.2280 -0.7772
vn 0.1854 -0.0551 -0.9811
vn 0.0736 0.6195 -0.7816
vn -0.2617 0.2871 -0.9214
vn -0.1018 -0.0716 -0.9922
vn -0.3031 0.9257 -0.2265
vn -0.7694 0.6269 0.1225
vn -0.3485 0.9110 0.2203
vn 0.8814 0.2366 0.4088
vn 0.9045 0.2689 0.3309
vn 0.2537 0.3318 -0.9086
vn 0.2980 -0.0010 -0.9546
vn 0.0986 -0.1230 -0.9875
vn -0.5949 -0.5046 -0.6257
vn -0.5839 -0.2091 -0.7844
vn -0.7484 -0.2939 -0.5946
vn 0.9393 0.2307 0.2540
vn 0.9296 -0.2479 -0.2728
vn 0.8946 -0.2703 -0.3559
usemtl Material.001
s 1
f 2/1/1 1/2/1 6/3/1
f 3/4/2 2/5/2 7/6/2
f 4/7/3 3/8/3 8/9/3
f 5/10/4 4/11/4 9/12/4
f 1/13/5 10/14/5 6/3/5
f 2/1/6 6/15/6 7/6/6
f 3/4/7 7/16/7 8/9/7
f 4/7/8 8/17/8 9/12/8
f 7/18/9 6/15/9 11/19/9
f 8/20/10 7/21/10 11/22/10
f 9/23/11 8/24/11 11/22/11
f 13/25/1 12/26/1 17/27/1
f 14/28/2 13/29/2 18/30/2
f 15/31/3 14/32/3 19/33/3
f 16/34/4 15/35/4 20/36/4
f 13/37/6 17/38/6 18/39/6
f 14/28/7 18/40/7 19/33/7
f 15/31/8 19/41/8 20/36/8
f 18/42/9 17/38/9 21/43/9
f 19/44/10 18/45/10 21/43/10
f 20/46/11 19/47/11 21/43/11
f 22/48/12 34/49/12 37/50/12
f 23/51/13 33/52/13 39/53/13
f 24/54/14 35/55/14 41/56/14
f 22/57/15 37/58/15 40/59/15
f 23/51/16 39/60/16 42/61/16
f 24/54/17 41/62/17 44/63/17
f 25/64/18 43/65/18 46/66/18
f 27/67/19 47/68/19 52/69/19
f 28/70/20 48/71/21 54/72/22
f 29/73/23 49/74/23 55/75/23
f 30/76/24 50/77/24 56/78/24
f 31/79/25 51/80/25 53/81/25
f 53/82/26 56/83/26 32/84/26
f 53/82/27 51/80/27 56/85/27
f 51/86/28 30/87/28 56/85/28
f 56/88/29 55/89/29 32/84/29
f 56/88/30 50/90/30 55/91/30
f 50/92/31 29/93/31 55/91/31
f 55/94/32 54/95/32 32/84/32
f 55/94/33 49/96/33 54/72/33
f 49/97/34 28/98/34 54/72/34
f 54/99/35 52/100/35 32/84/35
f 54/99/36 48/71/36 52/69/36
f 48/101/37 27/102/37 52/69/37
f 52/103/38 53/104/38 32/84/38
f 52/103/39 47/68/39 53/81/39
f 47/105/40 31/106/41 53/81/42
f 38/107/43 51/80/43 31/108/43
f 38/107/44 45/109/44 51/110/44
f 45/111/45 30/112/45 51/113/45
f 46/114/46 50/77/46 30/115/46
f 46/114/47 43/65/47 50/116/47
f 43/117/48 29/118/49 50/116/48
f 44/119/50 49/74/50 29/120/50
f 44/121/51 41/122/51 49/123/51
f 41/124/52 28/98/52 49/125/52
f 42/126/53 48/71/21 28/127/20
f 42/126/54 39/128/54 48/129/54
f 39/130/55 27/102/55 48/129/55
f 40/131/56 47/68/56 27/132/56
f 40/131/57 37/133/57 47/134/57
f 37/135/58 31/106/41 47/134/40
f 45/111/59 46/136/59 30/115/59
f 43/117/48 44/137/60 29/120/49
f 43/138/61 36/139/61 44/140/61
f 36/141/62 24/142/62 44/140/62
f 41/124/63 42/143/63 28/127/63
f 41/144/64 35/55/64 42/61/64
f 35/145/65 23/146/65 42/61/65
f 39/130/66 40/147/66 27/132/66
f 39/148/67 33/52/67 40/149/67
f 33/150/68 22/151/68 40/149/68
f 37/135/69 38/152/69 31/108/69
f 37/153/70 34/49/70 38/154/70
f 34/155/71 26/156/71 38/157/71
f 58/158/72 67/159/72 73/160/72
f 59/161/73 68/162/73 74/163/73
f 60/164/74 69/165/74 76/166/74
f 57/167/75 70/168/75 72/169/75
f 58/170/76 73/171/76 75/172/76
f 59/161/77 74/163/77 77/173/77
f 60/164/78 76/166/78 71/174/78
f 62/175/79 79/176/79 84/177/79
f 63/178/80 80/179/80 85/180/80
f 64/181/81 81/182/81 82/183/81
f 82/183/82 85/180/82 65/184/82
f 82/183/83 81/182/83 85/180/83
f 81/182/84 63/178/84 85/180/84
f 85/180/85 84/177/85 65/184/85
f 85/180/86 80/179/86 84/177/86
f 80/179/87 62/175/87 84/177/87
f 84/177/88 83/185/88 65/184/88
f 84/177/89 79/176/89 83/185/89
f 79/176/90 61/186/90 83/185/90
f 78/187/91 64/181/91 82/183/91
f 71/188/92 81/182/92 64/181/92
f 71/174/93 76/166/93 81/189/93
f 76/190/94 63/178/94 81/182/94
f 77/191/95 80/179/95 63/178/95
f 77/173/96 74/163/96 80/192/96
f 74/193/97 62/175/97 80/179/97
f 75/194/98 79/176/98 62/175/98
f 75/194/99 73/195/99 79/176/99
f 73/195/100 61/186/100 79/176/100
f 72/169/101 70/168/101 78/187/101
f 70/168/102 64/181/102 78/187/102
f 76/190/103 77/191/103 63/178/103
f 76/196/104 69/197/104 77/198/104
f 69/165/105 59/161/105 77/173/105
f 74/163/106 75/172/106 62/199/106
f 74/163/107 68/162/107 75/172/107
f 68/162/108 58/170/108 75/172/108
f 70/200/109 71/174/109 64/201/109
f 70/200/110 66/202/110 71/174/110
f 66/202/111 60/164/111 71/174/111
